<?xml version="1.0" encoding="UTF-8"?>
<svg id="Layer_2" data-name="Layer 2" xmlns="http://www.w3.org/2000/svg" xmlns:xlink="http://www.w3.org/1999/xlink" viewBox="0 0 454.76 516.64">
  <defs>
    <style>
      .cls-1 {
        fill: #00adef;
      }

      .cls-2 {
        fill: url(#linear-gradient);
      }

      .cls-3 {
        fill: #231f20;
      }
    </style>
    <linearGradient id="linear-gradient" x1="153.34" y1="229.43" x2="277.65" y2="229.43" gradientUnits="userSpaceOnUse">
      <stop offset="0" stop-color="#e96905"/>
      <stop offset=".58" stop-color="#f6ad0a"/>
      <stop offset="1" stop-color="#f9c608"/>
    </linearGradient>
  </defs>
  <g id="Layer_1-2" data-name="Layer 1">
    <g>
      <path class="cls-1" d="m446.96,320.33l-82.4-146.35L279.01,29.44c-23.23-39.25-80.04-39.25-103.27,0l-85.54,144.53L7.8,320.33c-22.38,39.75,6.02,88.94,51.63,89.43l167.94,1.82,167.94-1.82c45.61-.49,74.01-49.69,51.63-89.43Zm-72.64,44.09l-146.94,1.59-146.94-1.59c-19.39-.21-31.47-21.13-21.96-38.03l72.09-128.04,74.84-126.46c9.88-16.69,34.03-16.69,43.91,0l74.84,126.46,72.09,128.04c9.52,16.9-2.56,37.82-21.96,38.03Z"/>
      <g>
        <path class="cls-2" d="m153.34,265.36c.78-.69,1.56-1.36,2.33-2.06,14.71-13.34,29.42-26.69,44.13-40.03,7.93-7.19,15.87-14.36,23.79-21.54,2.9-2.63,5.76-5.32,8.71-7.9.57-.5,1.49-.86,2.25-.86,13.78-.05,27.56-.03,41.33-.02.51,0,1.02.06,1.77.12-.33.48-.48.8-.72,1.02-15.86,14.2-31.74,28.38-47.6,42.58-10.38,9.29-20.73,18.61-31.08,27.93-.96.86-1.94,1.32-3.26,1.32-13.3-.04-26.6-.04-39.9-.05-.5,0-1-.05-1.5-.08-.08-.14-.16-.29-.24-.43Z"/>
        <path class="cls-3" d="m264.64,103.61c-19.43,29.6-38.87,59.2-58.6,89.26h10.2l.16.47c-.89.85-1.76,1.72-2.67,2.54-10.38,9.29-20.76,18.59-31.17,27.84-.54.48-1.38.88-2.08.88-14.21.05-28.41.05-42.62.05-.25,0-.5-.08-1.06-.53,42.49-40.29,84.98-80.58,127.48-120.88.12.12.25.25.37.37Z"/>
        <path class="cls-3" d="m223.71,265.9h-8.92c-.08-.18-.16-.36-.24-.54.85-.75,1.7-1.5,2.54-2.27,10.33-9.35,20.65-18.71,31-28.03.5-.45,1.28-.83,1.94-.83,14.15-.05,28.31-.04,42.46-.03.25,0,.49.09,1.3.26-42.68,40.46-85.06,80.65-127.45,120.84-.16-.12-.32-.24-.48-.36,19.36-29.5,38.72-58.99,58.08-88.49-.07-.18-.15-.36-.22-.54Z"/>
      </g>
      <path d="m85.63,515.24l1.7-12.2,1.5-1.4h35.7l3.4-3.3v-5.7l-3.4-3.4h-28.9l-10-10v-22.6l10-10h47.9l1.4,1.4-1.7,12.2-1.5,1.4h-35.8l-3.3,3.3v6.1l3.3,3.3h29l10,10v22.3l-10,10h-47.9l-1.4-1.4Z"/>
      <path d="m165.51,497.24h16.6l1.4,1.4v16.6l-1.4,1.4h-16.6l-1.4-1.4v-16.6l1.4-1.4Z"/>
      <path d="m314.43,448.04l1.4-1.4h12.8l1.6,1.1,37.1,42.2v-41.9l1.4-1.4h14.2l1.4,1.4v67.2l-1.4,1.4h-12.3l-2.1-1.1-37.1-42.2v41.9l-1.4,1.4h-14.2l-1.4-1.4v-67.2Z"/>
      <path d="m282.56,497.24h16.6l1.4,1.4v16.6l-1.4,1.4h-16.6l-1.4-1.4v-16.6l1.4-1.4Z"/>
      <path d="m220.18,446.64l1.4,1.4v53.6h37l1.5,1.4-1.8,12.2-1.5,1.4h-50.8l-1.4-1.4v-67.2l1.4-1.4h14.2Z"/>
    </g>
  </g>
</svg>