<?xml version="1.0" standalone="no"?>
<!DOCTYPE svg PUBLIC "-//W3C//DTD SVG 20010904//EN"
 "http://www.w3.org/TR/2001/REC-SVG-20010904/DTD/svg10.dtd">
<svg version="1.0" xmlns="http://www.w3.org/2000/svg"
 width="1035.000000pt" height="1035.000000pt" viewBox="0 0 1035.000000 1035.000000"
 preserveAspectRatio="xMidYMid meet">
<metadata>
Created by potrace 1.14, written by Peter Selinger 2001-2017
</metadata>
<g transform="translate(0.000000,1035.000000) scale(0.100000,-0.100000)"
fill="#000000" stroke="none">
<path d="M5127 10344 c-1 -1 -33 -4 -72 -8 -76 -6 -132 -14 -155 -22 -8 -3
-26 -8 -39 -10 -77 -15 -240 -86 -336 -147 -62 -40 -56 -35 -140 -106 -138
-117 -177 -172 -480 -686 -120 -203 -295 -500 -390 -660 -94 -159 -212 -357
-260 -440 -48 -82 -120 -204 -160 -270 -111 -186 -169 -284 -180 -303 -17 -29
-109 -186 -120 -204 -5 -9 -28 -47 -50 -84 -22 -37 -47 -79 -55 -93 -9 -14
-42 -71 -75 -126 -32 -55 -91 -154 -130 -220 -40 -66 -85 -145 -102 -175 -16
-30 -79 -143 -140 -250 -60 -107 -121 -215 -135 -240 -14 -25 -67 -119 -118
-210 -51 -91 -102 -181 -113 -200 -11 -19 -47 -84 -82 -145 -34 -60 -73 -130
-87 -155 -14 -25 -54 -97 -90 -160 -36 -63 -98 -173 -138 -245 -40 -71 -87
-155 -103 -185 -17 -30 -41 -72 -54 -92 -13 -21 -23 -40 -23 -43 0 -3 -10 -22
-23 -43 -13 -20 -37 -62 -54 -92 -16 -30 -63 -113 -103 -185 -41 -71 -87 -155
-103 -185 -16 -30 -36 -62 -43 -71 -8 -8 -14 -18 -14 -22 0 -3 -26 -52 -58
-109 -167 -294 -193 -348 -231 -477 -39 -130 -46 -188 -45 -351 1 -175 34
-329 99 -468 14 -29 25 -55 25 -57 0 -3 19 -35 41 -72 174 -284 433 -477 741
-552 150 -36 126 -35 1143 -45 286 -3 765 -9 1065 -13 686 -9 2160 -9 2855 0
292 4 769 9 1060 13 719 7 985 12 1015 18 14 3 41 7 61 10 222 33 466 162 634
336 121 124 169 192 234 333 86 184 114 306 115 497 1 138 -4 186 -24 275 -7
28 -13 55 -14 60 -8 39 -32 102 -73 193 -16 35 -196 358 -262 470 -17 29 -31
55 -31 58 0 2 -10 21 -23 42 -13 20 -37 62 -54 92 -16 30 -39 71 -50 90 -11
19 -35 62 -53 95 -18 33 -80 142 -137 242 -56 101 -103 185 -103 188 0 3 -11
22 -23 43 -22 34 -238 414 -317 557 -36 64 -184 328 -473 840 -167 296 -212
375 -237 415 -12 19 -188 317 -305 515 -48 83 -114 193 -145 245 -31 52 -126
212 -210 355 -84 143 -170 288 -191 323 -22 35 -39 67 -39 73 0 5 -4 9 -10 9
-5 0 -10 4 -10 9 0 5 -41 78 -91 162 -51 85 -101 170 -111 189 -11 19 -48 82
-83 140 -34 58 -113 191 -175 295 -62 105 -156 262 -208 350 -112 189 -153
246 -247 340 -94 94 -174 152 -292 213 -90 46 -232 98 -293 107 -14 2 -53 9
-88 15 -55 9 -209 19 -215 14z m125 -1198 c129 -16 293 -126 349 -234 8 -15
18 -31 22 -37 11 -15 167 -278 167 -282 0 -3 14 -24 30 -48 17 -24 30 -46 30
-48 0 -4 149 -257 201 -342 10 -16 23 -39 28 -50 5 -11 21 -37 35 -58 14 -21
26 -40 26 -42 0 -2 40 -70 88 -152 49 -81 135 -227 192 -323 57 -96 137 -230
177 -298 40 -68 73 -125 73 -127 0 -2 14 -24 30 -48 17 -25 30 -50 30 -56 0
-6 5 -11 10 -11 6 0 10 -4 10 -9 0 -5 41 -78 92 -163 50 -84 96 -162 102 -173
6 -11 39 -67 74 -125 35 -58 67 -112 72 -120 32 -53 176 -311 211 -378 10 -18
22 -38 27 -45 5 -7 23 -37 39 -67 45 -82 107 -193 370 -660 132 -234 251 -445
265 -470 14 -25 146 -261 295 -525 148 -264 275 -493 281 -510 96 -258 -28
-545 -283 -652 -95 -39 -36 -37 -1015 -47 -283 -4 -751 -9 -1040 -12 -671 -8
-1443 -8 -2115 -1 -291 4 -766 9 -1055 12 -933 11 -915 10 -996 38 -172 59
-293 196 -334 377 -12 54 -10 177 4 235 8 34 61 147 87 185 9 14 31 52 49 85
50 90 455 811 581 1033 33 57 59 106 59 109 0 3 8 17 19 31 10 15 31 50 45 77
15 28 35 64 45 80 10 17 34 61 55 98 34 63 48 88 94 170 11 17 101 178 201
357 201 358 258 457 271 480 96 161 167 279 176 295 6 11 24 43 41 70 17 28
90 151 163 275 72 124 141 237 151 252 10 15 19 29 19 32 0 2 34 62 77 133 42
70 84 142 93 158 10 17 75 127 145 245 71 118 142 240 160 270 60 103 251 425
278 467 15 24 27 44 27 46 0 2 32 56 70 121 39 64 70 119 70 122 0 9 78 109
101 130 78 69 176 117 263 130 23 3 42 7 43 8 3 2 74 -2 125 -8z"/>
<path d="M5799 8177 c-58 -56 -168 -160 -243 -232 -169 -160 -194 -183 -387
-366 -85 -81 -174 -166 -199 -189 -45 -42 -275 -261 -444 -421 -50 -48 -111
-106 -136 -129 -69 -65 -327 -309 -385 -365 -29 -27 -93 -88 -142 -135 -49
-47 -152 -144 -229 -217 -76 -72 -170 -161 -208 -197 -38 -36 -67 -69 -63 -72
5 -5 827 -9 882 -5 11 1 30 17 134 109 35 31 73 65 84 75 12 10 55 49 97 87
42 38 87 79 101 90 13 12 58 52 99 89 41 37 93 83 115 102 88 74 85 84 -25 84
-49 0 -91 3 -92 7 -2 4 25 49 58 100 201 306 365 556 422 643 36 55 120 183
187 285 67 102 172 262 233 355 61 94 115 175 119 180 27 33 134 208 131 215
-2 5 -51 -37 -109 -93z"/>
<path d="M5277 6470 c-15 -8 -49 -36 -75 -61 -26 -25 -121 -113 -212 -194 -91
-82 -183 -166 -205 -186 -22 -20 -52 -47 -67 -60 -14 -13 -62 -56 -105 -95
-43 -40 -95 -87 -117 -105 -21 -19 -52 -48 -70 -64 -17 -17 -103 -96 -191
-175 -88 -79 -165 -149 -171 -155 -22 -20 -188 -171 -208 -188 -72 -62 -166
-152 -166 -158 0 -12 851 -9 874 3 12 6 28 18 37 27 8 9 51 48 94 86 43 39 88
79 100 90 13 11 58 52 101 90 43 39 101 91 129 116 27 26 118 106 200 179 83
73 159 143 171 154 12 12 34 32 50 46 72 63 213 188 249 221 22 21 51 47 65
59 29 25 29 25 224 199 197 176 191 170 182 178 -4 5 -200 8 -434 8 -361 0
-431 -2 -455 -15z"/>
<path d="M5600 5653 c-8 -3 -22 -13 -30 -22 -8 -9 -58 -54 -110 -101 -52 -47
-112 -101 -134 -120 -21 -19 -48 -44 -60 -55 -12 -11 -60 -54 -106 -95 -46
-41 -111 -100 -144 -131 -34 -31 -72 -66 -86 -77 -32 -26 -21 -31 88 -34 l83
-3 -112 -170 c-62 -93 -144 -219 -184 -280 -39 -60 -138 -211 -220 -335 -81
-124 -209 -318 -284 -433 -75 -114 -187 -284 -248 -379 -62 -94 -113 -173
-113 -174 0 -2 3 -4 8 -4 8 0 47 36 223 204 52 50 165 156 249 236 85 80 175
165 200 190 26 25 109 104 185 175 76 72 159 150 185 175 26 25 109 104 184
175 76 72 162 153 190 180 29 28 119 113 200 190 82 77 172 163 201 190 28 28
116 111 195 185 78 74 166 158 195 185 194 186 328 310 336 313 5 2 9 8 9 12
0 10 -876 12 -900 3z"/>
<path d="M2434 1310 l-99 -100 -1 -228 0 -227 98 -100 99 -100 289 0 289 0 35
-35 c33 -31 36 -39 36 -90 0 -50 -3 -59 -33 -88 l-33 -32 -361 0 c-382 0 -378
0 -387 -46 -2 -11 -7 -41 -10 -69 -12 -88 -17 -120 -22 -136 -2 -8 2 -23 9
-33 13 -18 39 -19 496 -19 l483 0 100 101 101 100 -1 208 c0 115 -1 216 -1
225 -1 15 -183 207 -199 210 -4 1 -136 2 -294 3 l-287 2 -32 32 c-28 29 -31
38 -31 93 0 55 3 64 31 93 l32 33 359 0 c270 0 363 3 374 12 8 7 18 38 22 69
3 31 8 64 9 73 14 74 15 122 5 135 -11 12 -87 14 -495 14 l-482 0 -99 -100z"/>
<path d="M4727 1392 c-14 -15 -16 -88 -16 -686 0 -582 2 -671 15 -684 22 -22
1027 -23 1049 -1 8 8 17 34 20 58 3 23 7 46 9 50 2 3 7 35 10 70 4 36 9 68 11
71 3 4 -4 15 -13 24 -16 14 -64 16 -388 18 l-369 3 0 531 c0 435 -2 534 -14
547 -11 14 -36 17 -156 17 -123 0 -144 -2 -158 -18z"/>
<path d="M6922 1398 c-9 -9 -12 -176 -12 -689 0 -579 2 -678 15 -689 12 -10
129 -15 265 -11 66 2 62 -22 62 435 0 229 2 416 5 416 3 0 22 -19 42 -42 47
-54 187 -213 266 -303 34 -38 77 -88 96 -110 19 -22 41 -47 49 -55 8 -8 44
-49 80 -90 36 -41 77 -88 92 -105 16 -16 47 -53 70 -82 24 -29 51 -55 60 -58
9 -3 73 -7 142 -7 89 -1 129 2 140 11 14 12 16 87 16 688 0 571 -2 677 -14
689 -21 21 -298 20 -316 0 -8 -11 -12 -122 -12 -425 0 -226 -2 -411 -5 -411
-6 0 -10 5 -103 110 -41 47 -77 87 -80 90 -3 3 -34 39 -70 80 -36 41 -69 80
-75 86 -5 6 -37 41 -70 79 -33 37 -64 73 -70 79 -13 14 -140 160 -180 205 -16
19 -48 54 -71 78 l-41 43 -135 0 c-91 0 -138 -4 -146 -12z"/>
<path d="M3916 381 c-21 -23 -20 -335 1 -356 16 -17 19 -17 217 -17 113 0 142
3 151 15 17 23 13 340 -4 361 -20 24 -343 21 -365 -3z"/>
<path d="M6258 383 c-21 -26 -20 -349 2 -363 18 -12 20 -12 195 -12 168 1 151
-1 167 16 19 19 19 336 0 359 -11 13 -42 16 -181 16 -148 1 -169 -1 -183 -16z"/>
</g>
</svg>
